<?xml version="1.0" encoding="utf-8"?>
<!-- Generator: Adobe Illustrator 16.0.0, SVG Export Plug-In . SVG Version: 6.00 Build 0)  -->
<!DOCTYPE svg PUBLIC "-//W3C//DTD SVG 1.1//EN" "http://www.w3.org/Graphics/SVG/1.1/DTD/svg11.dtd">
<svg version="1.1" id="Слой_1" xmlns="http://www.w3.org/2000/svg" xmlns:xlink="http://www.w3.org/1999/xlink" x="0px" y="0px"
	 width="30px" height="65px" viewBox="0 0 30 65" enable-background="new 0 0 30 65" xml:space="preserve">
<g id="Слой_1_1_" xmlns:sketch="http://www.bohemiancoding.com/sketch/ns" display="none">
	<title>Temperature</title>
	<desc>Created with Sketch.</desc>
	<g id="Page-1" sketch:type="MSPage" display="inline">
		<g id="Temperature" transform="translate(0.000000, 2.000000)" sketch:type="MSLayerGroup">
			<path id="Shape" sketch:type="MSShapeGroup" fill="none" stroke="#6B6C6E" stroke-width="2" d="M22.1,42.7V6.8
				c0-4.7-3-6.9-6.898-6.9c-4,0-7,2.2-7,6.9v35.8c-2.4,2-4.1,5.2-4.1,8.602c0,6.1,5.1,10.699,11.2,10.699
				c6.102,0,10.9-4.601,10.9-10.699C26.1,48,24.4,44.7,22.1,42.7L22.1,42.7z"/>
			<path id="Shape_1_" sketch:type="MSShapeGroup" fill="none" stroke="#6B6C6E" stroke-width="2" d="M15.1,7v34.8"/>
			<path id="Shape_2_" sketch:type="MSShapeGroup" fill="none" stroke="#6B6C6E" stroke-width="2" d="M21.4,47.9
				c0.5,0.898,0.699,2,0.699,3.1c0,3.8-3.101,7-7,7"/>
			<path id="Shape_3_" sketch:type="MSShapeGroup" fill="none" stroke="#6B6C6E" stroke-width="2" d="M25,9.9h5"/>
			<path id="Shape_4_" sketch:type="MSShapeGroup" fill="none" stroke="#6B6C6E" stroke-width="2" d="M25,16.9h3"/>
			<path id="Shape_5_" sketch:type="MSShapeGroup" fill="none" stroke="#6B6C6E" stroke-width="2" d="M25,23.9h5"/>
			<path id="Shape_6_" sketch:type="MSShapeGroup" fill="none" stroke="#6B6C6E" stroke-width="2" d="M25,29.9h3"/>
			<path id="Shape_7_" sketch:type="MSShapeGroup" fill="none" stroke="#6B6C6E" stroke-width="2" d="M25,36.9h5"/>
			<path id="Shape_8_" sketch:type="MSShapeGroup" fill="none" stroke="#6B6C6E" stroke-width="2" d="M0,9.9h5"/>
			<path id="Shape_9_" sketch:type="MSShapeGroup" fill="none" stroke="#6B6C6E" stroke-width="2" d="M2,16.9h3"/>
			<path id="Shape_10_" sketch:type="MSShapeGroup" fill="none" stroke="#6B6C6E" stroke-width="2" d="M0,23.9h5"/>
			<path id="Shape_11_" sketch:type="MSShapeGroup" fill="none" stroke="#6B6C6E" stroke-width="2" d="M2,29.9h3"/>
			<path id="Shape_12_" sketch:type="MSShapeGroup" fill="none" stroke="#6B6C6E" stroke-width="2" d="M0,36.9h5"/>
		</g>
	</g>
</g>
<g id="Слой_2">
	<path fill="none" stroke="#FFFFFF" stroke-width="2" d="M28.375,41.667c0-7.362-11.08-36.042-13.182-36.042
		c-2.595,0-13.182,28.68-13.182,36.042C2.012,49.03,7.914,55,15.193,55C22.474,55,28.375,49.03,28.375,41.667z"/>
	<g>
		<path fill="#FFFFFF" d="M7.706,49.369c0,0-0.199-0.166-0.521-0.473c-0.323-0.307-0.765-0.744-1.213-1.391
			c-0.243-0.311-0.48-0.661-0.682-1.058c-0.226-0.386-0.453-0.806-0.615-1.275c-0.39-0.911-0.632-1.981-0.69-3.067l-0.008-0.817
			c0.026-0.271,0.052-0.539,0.078-0.806c0.074-0.528,0.199-1.041,0.353-1.516c0.128-0.484,0.339-0.915,0.523-1.322
			c0.189-0.401,0.394-0.768,0.597-1.09c0.392-0.652,0.769-1.152,1.035-1.507c0.262-0.354,0.431-0.555,0.431-0.555
			s-0.013,0.259-0.07,0.708c-0.063,0.443-0.183,1.074-0.352,1.793c-0.164,0.725-0.35,1.538-0.48,2.388
			C6.006,39.807,6,40.246,5.955,40.684c-0.02,0.438-0.036,0.883-0.004,1.326c0.012,0.444,0.07,0.891,0.127,1.329
			c0.085,0.437,0.12,0.88,0.246,1.297c0.097,0.423,0.191,0.839,0.314,1.228c0.109,0.394,0.21,0.769,0.329,1.105
			c0.108,0.352,0.208,0.674,0.295,0.958c0.109,0.287,0.186,0.548,0.255,0.761C7.647,49.115,7.706,49.369,7.706,49.369z"/>
	</g>
</g>
</svg>
