<?xml version="1.0" encoding="utf-8"?>
<!-- Generator: Adobe Illustrator 16.0.0, SVG Export Plug-In . SVG Version: 6.00 Build 0)  -->
<!DOCTYPE svg PUBLIC "-//W3C//DTD SVG 1.1//EN" "http://www.w3.org/Graphics/SVG/1.1/DTD/svg11.dtd">
<svg version="1.1" id="Layer_1" xmlns="http://www.w3.org/2000/svg" xmlns:xlink="http://www.w3.org/1999/xlink" x="0px" y="0px"
	 width="3318px" height="3318px" viewBox="0 0 3318 3318" enable-background="new 0 0 3318 3318" xml:space="preserve">
<path fill="#FFFFFF" d="M1125.098,1174.098c-55.141,0-100-44.86-100-100s44.859-100,100-100c55.14,0,100,44.86,100,100
	S1180.238,1174.098,1125.098,1174.098z M1125.098,994.098c-44.113,0-80,35.888-80,80s35.887,80,80,80c44.111,0,80-35.888,80-80
	S1169.209,994.098,1125.098,994.098z"/>
<path fill="#FFFFFF" d="M1125,958c-5.523,0-10-4.478-10-10v-54c0-5.522,4.477-10,10-10c5.522,0,10,4.478,10,10v54
	C1135,953.522,1130.523,958,1125,958z"/>
<path fill="#FFFFFF" d="M1125,1264c-5.523,0-10-4.478-10-10v-54c0-5.522,4.477-10,10-10c5.522,0,10,4.478,10,10v54
	C1135,1259.522,1130.523,1264,1125,1264z"/>
<path fill="#FFFFFF" d="M999,1084h-54c-5.523,0-10-4.478-10-10s4.477-10,10-10h54c5.522,0,10,4.478,10,10S1004.523,1084,999,1084z"
	/>
<path fill="#FFFFFF" d="M1305,1084h-54c-5.523,0-10-4.478-10-10s4.477-10,10-10h54c5.522,0,10,4.478,10,10S1310.523,1084,1305,1084z
	"/>
<path fill="#FFFFFF" d="M1213.541,995.458c-2.559,0-5.118-0.977-7.07-2.929c-3.905-3.905-3.905-10.237,0-14.143l38.736-38.737
	c3.906-3.905,10.238-3.905,14.143,0c3.905,3.905,3.905,10.237,0,14.143l-38.736,38.737
	C1218.66,994.481,1216.101,995.458,1213.541,995.458z"/>
<path fill="#FFFFFF" d="M997.721,1211.279c-2.56,0-5.119-0.976-7.072-2.929c-3.904-3.905-3.904-10.237,0-14.143l38.738-38.737
	c3.904-3.905,10.236-3.905,14.143,0c3.904,3.905,3.904,10.237,0,14.143l-38.738,38.737
	C1002.839,1210.304,1000.28,1211.279,997.721,1211.279z"/>
<path fill="#FFFFFF" d="M1036.457,995.458c-2.559,0-5.118-0.977-7.07-2.929l-38.738-38.737c-3.904-3.905-3.904-10.237,0-14.143
	c3.906-3.905,10.238-3.905,14.143,0l38.738,38.737c3.904,3.905,3.904,10.237,0,14.143
	C1041.576,994.481,1039.017,995.458,1036.457,995.458z"/>
<path fill="#FFFFFF" d="M1252.28,1211.279c-2.56,0-5.119-0.976-7.072-2.929l-38.736-38.737c-3.905-3.905-3.905-10.237,0-14.143
	c3.904-3.905,10.236-3.905,14.143,0l38.736,38.737c3.905,3.905,3.905,10.237,0,14.143
	C1257.398,1210.304,1254.838,1211.279,1252.28,1211.279z"/>
<path fill="#FFFFFF" d="M1762.797,1124.001c-2.908,0-5.791-1.264-7.768-3.697c-3.482-4.287-2.828-10.585,1.459-14.066
	c18.816-15.281,29.609-37.93,29.609-62.14c0-44.112-35.889-80-80-80c-40.804,0-74.981,30.528-79.502,71.011
	c-0.613,5.489-5.557,9.439-11.048,8.83c-5.488-0.613-9.441-5.561-8.828-11.049c5.651-50.619,48.374-88.792,99.378-88.792
	c55.141,0,100,44.86,100,100c0,30.261-13.486,58.569-37.002,77.665C1767.242,1123.269,1765.012,1124.001,1762.797,1124.001z"/>
<path fill="#FFFFFF" d="M1706,928c-5.523,0-10-4.478-10-10v-54c0-5.522,4.477-10,10-10c5.521,0,10,4.478,10,10v54
	C1716,923.522,1711.522,928,1706,928z"/>
<path fill="#FFFFFF" d="M1580,1054h-54c-5.523,0-10-4.478-10-10s4.477-10,10-10h54c5.522,0,10,4.478,10,10S1585.523,1054,1580,1054z
	"/>
<path fill="#FFFFFF" d="M1886,1054h-54c-5.523,0-10-4.478-10-10s4.477-10,10-10h54c5.521,0,10,4.478,10,10S1891.522,1054,1886,1054z
	"/>
<path fill="#FFFFFF" d="M1794.541,965.458c-2.559,0-5.117-0.977-7.07-2.929c-3.906-3.905-3.906-10.237,0-14.143l38.736-38.737
	c3.906-3.905,10.236-3.905,14.143,0s3.906,10.237,0,14.143l-38.736,38.737C1799.66,964.481,1797.102,965.458,1794.541,965.458z"/>
<path fill="#FFFFFF" d="M1617.457,965.458c-2.559,0-5.118-0.977-7.07-2.929l-38.738-38.737c-3.904-3.905-3.904-10.237,0-14.143
	c3.906-3.905,10.238-3.905,14.143,0l38.738,38.737c3.904,3.905,3.904,10.237,0,14.143
	C1622.576,964.481,1620.017,965.458,1617.457,965.458z"/>
<path fill="#FFFFFF" d="M1833.28,1181.279c-2.561,0-5.119-0.976-7.072-2.929l-38.736-38.737c-3.906-3.905-3.906-10.237,0-14.143
	s10.236-3.905,14.143,0l38.736,38.737c3.906,3.905,3.906,10.237,0,14.143C1838.397,1180.304,1835.838,1181.279,1833.28,1181.279z"/>
<path fill="#FFFFFF" d="M1505.967,1274c-38.473-0.253-69.717-31.658-69.717-70.007c0-33.324,22.986-61.18,54.278-68.262
	c-0.509-2.8-0.765-5.656-0.765-8.56c0-26.253,21.358-47.61,47.611-47.61c8.72,0,17.078,2.327,24.369,6.688
	c19.981-26.422,50.813-41.896,84.461-41.896c52.588,0,96.916,38.738,104.781,89.783c36.398,2.453,65.264,32.848,65.264,69.857
	c0,38.223-31.096,69.625-69.318,70.002L1505.967,1274z M1537.375,1099.562c-15.225,0-27.611,12.386-27.611,27.61
	c0,4.343,0.986,8.507,2.931,12.374c1.526,3.037,1.406,6.643-0.32,9.57c-1.727,2.929-4.823,4.779-8.22,4.914
	c-26.862,1.061-47.904,23.007-47.904,49.963c0,27.393,22.332,49.826,49.782,50.007l240.8-0.005
	c27.205-0.269,49.418-22.699,49.418-50.002c0-27.579-22.438-50.017-50.018-50.017c-1.027,0-2.145,0.044-3.514,0.14
	c-2.646,0.182-5.275-0.696-7.277-2.449c-2.004-1.752-3.227-4.23-3.396-6.887c-2.893-45.1-40.598-80.428-85.84-80.428
	c-30.34,0-57.859,15.508-73.613,41.485c-1.596,2.63-4.313,4.38-7.366,4.744c-3.054,0.36-6.106-0.696-8.274-2.878
	C1551.729,1102.453,1544.777,1099.562,1537.375,1099.562z"/>
<path fill="#FFFFFF" d="M2868.531,1073.501c-2.516,0-5.025-0.993-6.895-2.963c-3.609-3.807-3.451-9.818,0.355-13.43
	c14.49-13.746,22.471-32.311,22.471-52.275c0-39.722-32.316-72.037-72.039-72.037c-34.889,0-64.701,24.873-70.889,59.143
	c-0.932,5.162-5.877,8.591-11.035,7.66c-5.164-0.932-8.594-5.873-7.662-11.037c7.822-43.322,45.498-74.766,89.586-74.766
	c50.199,0,91.039,40.839,91.039,91.037c0,25.23-10.084,48.69-28.395,66.06C2873.231,1072.636,2870.879,1073.501,2868.531,1073.501z"
	/>
<path fill="#FFFFFF" d="M2784.268,905.827c-4.369,0-8.303-3.032-9.271-7.477l-10.02-45.92c-1.119-5.126,2.131-10.188,7.256-11.307
	c5.137-1.119,10.189,2.131,11.307,7.257l10.02,45.92c1.119,5.126-2.131,10.188-7.256,11.307
	C2785.619,905.757,2784.938,905.827,2784.268,905.827z"/>
<path fill="#FFFFFF" d="M2923.901,994.604c-4.371,0-8.305-3.032-9.273-7.477c-1.119-5.126,2.131-10.188,7.256-11.307l48.852-10.658
	c5.137-1.119,10.189,2.132,11.307,7.258c1.119,5.125-2.131,10.188-7.256,11.307l-48.852,10.657
	C2925.252,994.534,2924.571,994.604,2923.901,994.604z"/>
<path fill="#FFFFFF" d="M2872.772,921.857c-1.756,0-3.533-0.486-5.123-1.506c-4.414-2.834-5.697-8.711-2.863-13.126l26.809-41.77
	c2.834-4.416,8.711-5.697,13.127-2.863s5.697,8.711,2.863,13.126l-26.809,41.769
	C2878.961,920.315,2875.899,921.857,2872.772,921.857z"/>
<path fill="#FFFFFF" d="M2716.026,956.055c-1.758,0-3.535-0.486-5.123-1.506l-41.77-26.808c-4.416-2.834-5.697-8.711-2.863-13.127
	s8.711-5.697,13.125-2.863l41.77,26.808c4.416,2.834,5.699,8.711,2.865,13.126C2722.215,954.513,2719.153,956.055,2716.026,956.055z
	"/>
<path fill="#FFFFFF" d="M2947.762,1105.626c-1.758,0-3.535-0.486-5.123-1.506l-41.77-26.808c-4.414-2.834-5.697-8.711-2.863-13.126
	c2.834-4.416,8.711-5.699,13.127-2.864l41.77,26.808c4.414,2.834,5.697,8.711,2.863,13.127
	C2953.951,1104.084,2950.889,1105.626,2947.762,1105.626z"/>
<path fill="#FFFFFF" d="M2631.11,1213.561c-35.098-0.231-63.602-28.88-63.602-63.864c0-30.256,20.77-55.57,49.109-62.18
	c-0.418-2.43-0.627-4.905-0.627-7.42c0-24.026,19.547-43.574,43.574-43.574c7.846,0,15.373,2.059,21.965,5.922
	c18.193-23.858,46.143-37.82,76.635-37.82c47.744,0,88.006,35.079,95.309,81.369c33.041,2.406,59.188,30.059,59.188,63.703
	c0,34.868-28.367,63.516-63.236,63.859L2631.11,1213.561z M2659.565,1055.522c-13.549,0-24.574,11.024-24.574,24.574
	c0,3.867,0.877,7.572,2.607,11.012c1.451,2.887,1.338,6.311-0.303,9.094c-1.641,2.781-4.582,4.54-7.809,4.668
	c-24.102,0.951-42.979,20.641-42.979,44.826c0,24.576,20.037,44.702,44.664,44.864l218.158-0.005
	c24.402-0.24,44.33-20.365,44.33-44.859c0-24.744-20.131-44.874-44.873-44.874c-0.926,0-1.928,0.04-3.156,0.124
	c-2.529,0.18-5.01-0.662-6.912-2.326c-1.902-1.665-3.063-4.02-3.225-6.543c-2.607-40.628-36.574-72.453-77.33-72.453
	c-27.332,0-52.123,13.971-66.316,37.373c-1.516,2.498-4.096,4.16-6.998,4.507c-2.902,0.345-5.801-0.663-7.861-2.733
	C2672.34,1058.097,2666.153,1055.522,2659.565,1055.522z"/>
<path fill="#FFFFFF" d="M2714.451,1312.821c-2.432,0-4.865-0.928-6.721-2.785c-3.707-3.712-3.705-9.727,0.008-13.436l22.688-22.664
	c3.711-3.707,9.727-3.705,13.434,0.006c3.709,3.713,3.705,9.728-0.006,13.436l-22.688,22.664
	C2719.311,1311.896,2716.881,1312.821,2714.451,1312.821z"/>
<path fill="#FFFFFF" d="M2635.631,1261.181c-2.432,0-4.865-0.928-6.721-2.785c-3.707-3.713-3.705-9.727,0.008-13.436l14.307-14.293
	c3.711-3.707,9.727-3.705,13.436,0.008c3.707,3.711,3.705,9.727-0.008,13.435l-14.307,14.293
	C2640.49,1260.255,2638.061,1261.181,2635.631,1261.181z"/>
<path fill="#FFFFFF" d="M2761.563,1261.181c-2.432,0-4.865-0.928-6.721-2.785c-3.707-3.712-3.705-9.727,0.008-13.436l14.307-14.293
	c3.711-3.707,9.727-3.705,13.434,0.007c3.709,3.712,3.705,9.728-0.006,13.435l-14.307,14.293
	C2766.422,1260.255,2763.992,1261.181,2761.563,1261.181z"/>
<path fill="#FFFFFF" d="M2802.332,1283.979c-2.434,0-4.865-0.929-6.721-2.786c-3.709-3.713-3.705-9.729,0.008-13.436l37.139-37.09
	c3.711-3.709,9.727-3.704,13.434,0.008c3.709,3.713,3.705,9.728-0.008,13.436l-37.139,37.09
	C2807.192,1283.053,2804.762,1283.979,2802.332,1283.979z"/>
<path fill="#FFFFFF" d="M2665.53,1293.944c-2.434,0-4.865-0.929-6.721-2.785c-3.709-3.713-3.705-9.728,0.006-13.436l47.104-47.057
	c3.713-3.707,9.727-3.704,13.436,0.007c3.707,3.712,3.705,9.728-0.008,13.435l-47.104,47.057
	C2670.389,1293.019,2667.959,1293.944,2665.53,1293.944z"/>
<path fill="#FFFFFF" d="M2076.967,1252c-38.473-0.253-69.717-31.658-69.717-70.007c0-33.324,22.986-61.18,54.279-68.262
	c-0.51-2.8-0.766-5.656-0.766-8.56c0-26.253,21.359-47.61,47.611-47.61c8.721,0,17.078,2.326,24.369,6.688
	c19.982-26.422,50.813-41.896,84.461-41.896c52.588,0,96.916,38.738,104.781,89.783c36.398,2.453,65.264,32.848,65.264,69.857
	c0,38.223-31.096,69.625-69.318,70.002L2076.967,1252z M2108.375,1077.562c-15.225,0-27.611,12.386-27.611,27.61
	c0,4.343,0.986,8.506,2.932,12.374c1.525,3.037,1.406,6.643-0.32,9.57c-1.727,2.929-4.824,4.779-8.221,4.914
	c-26.861,1.061-47.904,23.007-47.904,49.963c0,27.393,22.332,49.826,49.781,50.007l240.801-0.005
	c27.205-0.269,49.418-22.699,49.418-50.002c0-27.579-22.438-50.017-50.018-50.017c-1.027,0-2.145,0.044-3.514,0.14
	c-2.645,0.183-5.275-0.697-7.277-2.449c-2.004-1.752-3.227-4.23-3.396-6.887c-2.893-45.1-40.6-80.428-85.84-80.428
	c-30.34,0-57.859,15.508-73.615,41.486c-1.594,2.629-4.311,4.379-7.365,4.743c-3.055,0.362-6.105-0.696-8.275-2.878
	C2122.729,1080.453,2115.776,1077.562,2108.375,1077.562z"/>
<path fill="#FFFFFF" d="M2376.24,1127.167c-4.533,0-8.639-3.104-9.725-7.707c-1.268-5.375,2.063-10.76,7.438-12.027
	c18.338-4.324,34.955-13.736,48.086-27.039c-22.941-5.454-43.848-17.598-60.15-35.183c-20.621-22.244-31.977-51.208-31.977-81.558
	c0-18.658,4.248-36.754,12.402-53.191c-23.006,1.953-44.471,11.725-61.182,28.006c-18.742,18.26-29.461,42.696-30.182,68.809
	c-0.154,5.521-4.738,9.911-10.273,9.721c-5.52-0.152-9.871-4.752-9.719-10.273c0.865-31.342,13.729-60.67,36.217-82.582
	c22.533-21.953,52.271-34.043,83.736-34.043c3.205,0,6.49,0.133,9.758,0.396c3.578,0.287,6.727,2.47,8.252,5.719
	c1.523,3.248,1.191,7.064-0.873,10c-11.865,16.877-18.137,36.739-18.137,57.439c0,25.291,9.463,49.426,26.645,67.961
	c17.09,18.436,40.246,29.695,65.201,31.707c3.576,0.289,6.725,2.471,8.25,5.719c1.523,3.249,1.191,7.065-0.873,10
	c-16.963,24.128-42.033,41.124-70.592,47.857C2377.772,1127.08,2377,1127.167,2376.24,1127.167z"/>
<path fill="#FFFFFF" d="M2639.069,1817.615c-35.852-0.236-64.967-29.5-64.967-65.233c0-30.79,21.063-56.57,49.846-63.438
	c-0.391-2.384-0.588-4.811-0.588-7.273c0-24.603,20.016-44.618,44.619-44.618c7.93,0,15.539,2.053,22.227,5.908
	c18.553-24.177,46.963-38.317,77.947-38.317c48.584,0,89.57,35.631,97.133,82.689c33.617,2.594,60.18,30.777,60.18,65.049
	c0,35.616-28.977,64.877-64.592,65.229L2639.069,1817.615z M2667.979,1657.053c-13.574,0-24.619,11.044-24.619,24.618
	c0,3.873,0.879,7.584,2.613,11.033c1.527,3.037,1.406,6.643-0.32,9.57c-1.727,2.929-4.824,4.779-8.221,4.913
	c-24.297,0.96-43.33,20.812-43.33,45.194c0,24.778,20.201,45.069,45.033,45.233l221.641-0.005
	c24.598-0.242,44.689-20.532,44.689-45.229c0-24.947-20.297-45.242-45.242-45.242c-0.928,0-1.939,0.039-3.182,0.126
	c-2.664,0.186-5.273-0.698-7.275-2.45c-2.004-1.752-3.225-4.23-3.396-6.886c-2.637-41.095-36.994-73.286-78.217-73.286
	c-27.646,0-52.723,14.133-67.08,37.804c-1.594,2.63-4.311,4.38-7.365,4.743c-3.053,0.362-6.105-0.696-8.275-2.877
	C2680.778,1659.631,2674.578,1657.053,2667.979,1657.053z"/>
<path fill="#FFFFFF" d="M2921.246,1700.884c-4.266,0-8.217-2.75-9.547-7.039c-1.637-5.275,1.313-10.878,6.588-12.514
	c13.818-4.287,26.482-11.918,36.818-22.037c-20.719-5.211-39.584-16.33-54.363-32.273c-19.117-20.621-29.645-47.475-29.645-75.61
	c0-16.815,3.723-33.138,10.873-48.034c-19.75,1.994-38.279,10.346-52.947,24.018c-16.855,15.709-27.082,36.966-28.795,59.854
	c-0.41,5.507-5.223,9.646-10.717,9.226c-5.508-0.412-9.639-5.21-9.227-10.718c2.088-27.92,14.555-53.842,35.102-72.992
	c20.654-19.25,47.586-29.852,75.836-29.852c2.977,0,6.02,0.123,9.047,0.367c3.576,0.289,6.725,2.471,8.25,5.719
	c1.523,3.249,1.191,7.064-0.873,10c-10.826,15.4-16.549,33.523-16.549,52.413c0,23.077,8.635,45.102,24.313,62.014
	c15.594,16.822,36.725,27.097,59.496,28.933c3.576,0.289,6.725,2.471,8.248,5.719c1.525,3.249,1.191,7.065-0.871,10
	c-14.117,20.078-34.74,35.121-58.07,42.357C2923.227,1700.739,2922.227,1700.884,2921.246,1700.884z"/>
<path fill="#FFFFFF" d="M2729.266,1921.127c-2.563,0-5.123-0.978-7.074-2.933c-3.904-3.907-3.9-10.239,0.006-14.142l23.051-23.026
	c3.906-3.903,10.24-3.9,14.141,0.007c3.904,3.907,3.9,10.239-0.006,14.142l-23.051,23.026
	C2734.381,1920.151,2731.823,1921.127,2729.266,1921.127z"/>
<path fill="#FFFFFF" d="M2649.186,1868.661c-2.563,0-5.123-0.978-7.076-2.933c-3.902-3.907-3.898-10.239,0.008-14.143l14.537-14.521
	c3.906-3.903,10.238-3.899,14.143,0.008c3.902,3.907,3.898,10.239-0.008,14.143l-14.537,14.521
	C2654.301,1867.687,2651.742,1868.661,2649.186,1868.661z"/>
<path fill="#FFFFFF" d="M2777.129,1868.661c-2.563,0-5.121-0.978-7.074-2.933c-3.904-3.907-3.9-10.238,0.006-14.142l14.535-14.521
	c3.908-3.903,10.238-3.9,14.143,0.007c3.902,3.907,3.9,10.238-0.008,14.142l-14.535,14.521
	C2782.244,1867.686,2779.686,1868.661,2777.129,1868.661z"/>
<path fill="#FFFFFF" d="M2818.549,1891.823c-2.563,0-5.123-0.978-7.076-2.934c-3.902-3.907-3.898-10.239,0.01-14.142l37.73-37.683
	c3.908-3.904,10.242-3.899,14.143,0.009c3.902,3.907,3.898,10.239-0.01,14.142l-37.73,37.683
	C2823.662,1890.849,2821.106,1891.823,2818.549,1891.823z"/>
<path fill="#FFFFFF" d="M2679.561,1901.948c-2.563,0-5.123-0.978-7.074-2.933c-3.904-3.907-3.9-10.239,0.006-14.142l47.857-47.808
	c3.906-3.903,10.24-3.9,14.141,0.007c3.904,3.907,3.9,10.239-0.006,14.142l-47.857,47.808
	C2684.676,1900.973,2682.117,1901.948,2679.561,1901.948z"/>
<path fill="#FFFFFF" d="M2335,1712h-253.082c-19.672,0-36.293-16.938-36.293-36.989c0-20.396,16.254-36.99,36.232-36.99
	c19.963,0,36.203,16.485,36.203,36.748c0,5.522-4.477,10-10,10c-5.521,0-10-4.478-10-10c0-9.078-7.42-16.748-16.203-16.748
	c-8.799,0-16.232,7.781-16.232,16.99s7.461,16.989,16.293,16.989H2335c5.521,0,10,4.478,10,10S2340.522,1712,2335,1712z"/>
<path fill="#FFFFFF" d="M2386,1669h-204.863c-25.125,0-45.566-20.644-45.566-46.017c0-25.375,20.348-46.018,45.359-46.018
	c24.955,0,45.258,20.561,45.258,45.832c0,5.523-4.479,10-10,10c-5.523,0-10-4.477-10-10c0-14.244-11.33-25.832-25.258-25.832
	c-13.982,0-25.359,11.671-25.359,26.018c0,14.102,11.707,26.017,25.566,26.017H2386c5.521,0,10,4.478,10,10S2391.522,1669,2386,1669
	z"/>
<path fill="#FFFFFF" d="M2114.364,1823.823c-12.139,0-23.521-4.606-32.053-12.971c-8.615-8.446-13.359-19.79-13.359-31.94
	c0-24.765,20.418-44.912,45.514-44.912H2364c5.521,0,10,4.478,10,10s-4.479,10-10,10h-249.535
	c-14.307,0-25.514,10.942-25.514,24.912c0,13.969,11.162,24.911,25.412,24.911c14.223,0,25.363-11.023,25.363-25.096
	c0-5.522,4.477-10,10-10c5.521,0,10,4.478,10,10C2159.727,1803.594,2139.377,1823.823,2114.364,1823.823z"/>
<path fill="#FFFFFF" d="M2363.707,2277H2111c-5.523,0-10-4.478-10-10s4.477-10,10-10h252.707c8.857,0,16.34-7.608,16.34-16.614
	c0-9.161-7.262-16.614-16.186-16.614c-8.883,0-16.109,7.4-16.109,16.496c0,5.522-4.479,10-10,10c-5.523,0-10-4.478-10-10
	c0-20.124,16.197-36.496,36.109-36.496c19.953,0,36.186,16.425,36.186,36.614S2383.744,2277,2363.707,2277z"/>
<path fill="#FFFFFF" d="M2264.489,2234H2060c-5.523,0-10-4.478-10-10s4.477-10,10-10h204.488c14.123,0,25.613-11.503,25.613-25.643
	c0-14.139-11.355-25.642-25.313-25.642c-13.875,0-25.164,11.476-25.164,25.582c0,5.522-4.477,10-10,10c-5.521,0-10-4.478-10-10
	c0-25.134,20.26-45.582,45.164-45.582c24.986,0,45.313,20.475,45.313,45.642S2289.639,2234,2264.489,2234z"/>
<path fill="#FFFFFF" d="M2349.356,2389.573c-24.961,0-45.27-20.342-45.27-45.346c0-5.522,4.479-10,10-10c5.523,0,10,4.478,10,10
	c0,13.976,11.336,25.346,25.27,25.346c13.986,0,25.367-11.344,25.367-25.286c0-13.943-11.467-25.287-25.563-25.287H2080
	c-5.523,0-10-4.478-10-10s4.477-10,10-10h269.16c25.123,0,45.563,20.315,45.563,45.287
	C2394.723,2369.258,2374.371,2389.573,2349.356,2389.573z"/>
<path fill="#FFFFFF" d="M2182.957,2442.939c-2.561,0-5.121-0.978-7.074-2.933c-3.902-3.907-3.9-10.239,0.008-14.142l25.041-25.017
	c3.908-3.903,10.24-3.9,14.143,0.007s3.9,10.239-0.008,14.142l-25.041,25.017
	C2188.073,2441.964,2185.516,2442.939,2182.957,2442.939z"/>
<path fill="#FFFFFF" d="M2095.957,2385.939c-2.561,0-5.121-0.978-7.074-2.933c-3.902-3.907-3.9-10.238,0.008-14.142l15.791-15.776
	c3.908-3.903,10.238-3.9,14.143,0.007c3.902,3.907,3.9,10.238-0.008,14.142l-15.791,15.776
	C2101.073,2384.964,2098.516,2385.939,2095.957,2385.939z"/>
<path fill="#FFFFFF" d="M2234.957,2385.939c-2.561,0-5.121-0.978-7.074-2.933c-3.902-3.907-3.9-10.238,0.008-14.142l15.791-15.776
	c3.908-3.903,10.238-3.9,14.143,0.007c3.902,3.907,3.9,10.238-0.008,14.142l-15.791,15.776
	C2240.073,2384.964,2237.516,2385.939,2234.957,2385.939z"/>
<path fill="#FFFFFF" d="M2277.957,2424.103c-2.563,0-5.127-0.979-7.08-2.938c-3.9-3.911-3.891-10.242,0.02-14.143l18.992-18.939
	c3.91-3.898,10.24-3.893,14.143,0.02c3.898,3.911,3.891,10.242-0.02,14.143l-18.992,18.939
	C2283.067,2423.13,2280.512,2424.103,2277.957,2424.103z"/>
<path fill="#FFFFFF" d="M2128.957,2422.103c-2.561,0-5.121-0.978-7.074-2.933c-3.902-3.907-3.9-10.238,0.008-14.142l51.992-51.939
	c3.906-3.903,10.24-3.9,14.141,0.007c3.904,3.907,3.9,10.238-0.006,14.142l-51.992,51.939
	C2134.073,2421.127,2131.516,2422.103,2128.957,2422.103z"/>
<path fill="#FFFFFF" d="M2959.707,2341H2642c-5.523,0-10-4.478-10-10s4.477-10,10-10h317.707c8.891,0,16.402-7.608,16.402-16.614
	c0-9.161-7.232-16.614-16.123-16.614c-8.814,0-15.984,7.4-15.984,16.496c0,5.522-4.479,10-10,10c-5.523,0-10-4.478-10-10
	c0-20.124,16.143-36.496,35.984-36.496c19.918,0,36.123,16.425,36.123,36.614S2979.78,2341,2959.707,2341z"/>
<path fill="#FFFFFF" d="M2885.606,2453.573c-12.148,0-23.502-4.725-31.971-13.303c-8.414-8.523-13.049-19.903-13.049-32.043
	c0-5.522,4.479-10,10-10c5.523,0,10,4.478,10,10c0,14.213,10.99,25.346,25.02,25.346c14.154,0,25.242-11.107,25.242-25.286
	c0-13.943-11.523-25.287-25.688-25.287H2617c-5.523,0-10-4.478-10-10s4.477-10,10-10h268.16c25.191,0,45.688,20.315,45.688,45.287
	C2930.848,2433.258,2910.551,2453.573,2885.606,2453.573z"/>
<path fill="#FFFFFF" d="M2776.16,2304H2668c-5.523,0-10-4.478-10-10s4.477-10,10-10h108.16c14.164,0,25.688-11.415,25.688-25.446
	s-11.324-25.447-25.242-25.447c-14.029,0-25.02,11.181-25.02,25.453c0,5.522-4.477,10-10,10c-5.521,0-10-4.478-10-10
	c0-25.063,20.195-45.453,45.02-45.453c24.945,0,45.242,20.388,45.242,45.447S2801.352,2304,2776.16,2304z"/>
<path fill="#FFFFFF" d="M2718.957,2506.939c-2.561,0-5.121-0.978-7.074-2.933c-3.902-3.907-3.9-10.239,0.008-14.142l25.041-25.017
	c3.908-3.903,10.24-3.9,14.143,0.007s3.9,10.239-0.008,14.142l-25.041,25.017
	C2724.073,2505.964,2721.516,2506.939,2718.957,2506.939z"/>
<path fill="#FFFFFF" d="M2631.957,2449.939c-2.561,0-5.121-0.978-7.074-2.933c-3.902-3.907-3.9-10.238,0.008-14.142l15.791-15.776
	c3.908-3.903,10.238-3.9,14.143,0.007c3.902,3.907,3.9,10.238-0.008,14.142l-15.791,15.776
	C2637.073,2448.964,2634.516,2449.939,2631.957,2449.939z"/>
<path fill="#FFFFFF" d="M2770.957,2449.939c-2.561,0-5.121-0.978-7.074-2.933c-3.902-3.907-3.9-10.238,0.008-14.142l15.791-15.776
	c3.908-3.903,10.238-3.9,14.143,0.007c3.902,3.907,3.9,10.238-0.008,14.142l-15.791,15.776
	C2776.073,2448.964,2773.516,2449.939,2770.957,2449.939z"/>
<path fill="#FFFFFF" d="M2813.957,2488.103c-2.563,0-5.127-0.979-7.08-2.938c-3.9-3.911-3.891-10.242,0.02-14.143l18.992-18.939
	c3.91-3.899,10.24-3.892,14.143,0.02c3.898,3.911,3.891,10.242-0.02,14.143l-18.992,18.939
	C2819.067,2487.13,2816.512,2488.103,2813.957,2488.103z"/>
<path fill="#FFFFFF" d="M2664.957,2486.103c-2.561,0-5.121-0.978-7.074-2.933c-3.902-3.907-3.9-10.238,0.008-14.142l51.992-51.939
	c3.906-3.903,10.24-3.9,14.141,0.007c3.904,3.907,3.9,10.238-0.006,14.142l-51.992,51.939
	C2670.073,2485.127,2667.516,2486.103,2664.957,2486.103z"/>
<path fill="#FFFFFF" d="M2846.776,2305H2837c-5.523,0-10-4.478-10-10s4.477-10,10-10h9.602c25.17-0.912,44.863-20.812,44.863-45.37
	c0-24.986-20.297-45.313-45.242-45.313c-1.283,0-2.295,0.028-3.182,0.09c-2.67,0.188-5.273-0.697-7.275-2.449
	c-2.004-1.752-3.225-4.23-3.396-6.886c-2.637-41.105-36.994-73.304-78.217-73.304c-27.648,0-52.725,14.129-67.08,37.794
	c-1.594,2.63-4.311,4.38-7.365,4.744c-3.045,0.362-6.105-0.696-8.273-2.878c-4.66-4.685-10.859-7.265-17.455-7.265
	c-13.574,0-24.619,11.043-24.619,24.616c0,3.871,0.879,7.583,2.613,11.032c1.527,3.038,1.406,6.643-0.32,9.57
	c-1.729,2.929-4.824,4.779-8.221,4.913c-24.297,0.959-43.33,20.811-43.33,45.193c0,24.856,20.201,45.212,45.033,45.375l8.629,0.005
	c5.523,0.003,9.998,4.482,9.994,10.006c-0.002,5.521-4.479,9.994-10,9.994c-0.002,0-0.004,0-0.006,0l-8.689-0.005
	c-35.846-0.236-64.961-29.563-64.961-65.375c0-30.79,21.063-56.569,49.846-63.437c-0.391-2.384-0.588-4.811-0.588-7.272
	c0-24.602,20.016-44.616,44.619-44.616c7.928,0,15.537,2.054,22.227,5.912c18.551-24.172,46.959-38.308,77.947-38.308
	c48.596,0,89.592,35.657,97.139,82.744c33.613,2.599,60.174,30.813,60.174,65.118c0,35.46-28.27,64.172-64.359,65.364
	C2846.996,2304.998,2846.885,2305,2846.776,2305z"/>
<path fill="#FFFFFF" d="M474.717,1188.192c-38.473-0.254-69.717-31.658-69.717-70.006c0-33.324,22.986-61.18,54.278-68.264
	c-0.509-2.799-0.765-5.655-0.765-8.559c0-26.252,21.358-47.61,47.611-47.61c8.72,0,17.078,2.327,24.369,6.688
	c19.981-26.424,50.813-41.898,84.461-41.898c52.588,0,96.916,38.738,104.78,89.785c36.398,2.451,65.265,32.848,65.265,69.857
	c0,38.222-31.096,69.624-69.318,70L474.717,1188.192z M506.125,1013.754c-15.225,0-27.611,12.386-27.611,27.61
	c0,4.344,0.986,8.507,2.931,12.374c1.526,3.037,1.406,6.642-0.32,9.571c-1.727,2.928-4.823,4.778-8.22,4.912
	c-26.862,1.061-47.904,23.008-47.904,49.965c0,27.393,22.332,49.825,49.782,50.006l240.801-0.005
	c27.204-0.269,49.417-22.699,49.417-50.001c0-27.58-22.438-50.018-50.018-50.018c-1.027,0-2.145,0.045-3.516,0.14
	c-2.652,0.185-5.273-0.697-7.276-2.449c-2.003-1.753-3.226-4.231-3.396-6.887c-2.893-45.101-40.598-80.429-85.84-80.429
	c-30.34,0-57.859,15.51-73.613,41.486c-1.596,2.63-4.313,4.379-7.366,4.744c-3.053,0.36-6.106-0.697-8.274-2.878
	C520.479,1016.646,513.527,1013.754,506.125,1013.754z"/>
<path fill="#FFFFFF" d="M715.579,1764.091l-10.584-0.004c-5.522-0.002-9.998-4.48-9.996-10.004c0.002-5.521,4.479-9.996,10-9.996
	c0.001,0,0.003,0,0.004,0l10.532,0.004c27.279-0.295,49.465-22.693,49.465-49.953c0-27.566-22.438-49.992-50.018-49.992
	c-1.178,0-2.438,0.076-3.516,0.15c-2.652,0.188-5.273-0.696-7.276-2.449c-2.003-1.752-3.226-4.23-3.396-6.887
	c-2.893-45.096-40.598-80.422-85.84-80.422c-30.338,0-57.857,15.51-73.613,41.489c-1.596,2.63-4.313,4.38-7.366,4.744
	c-3.053,0.36-6.106-0.696-8.274-2.878c-5.222-5.25-12.174-8.141-19.576-8.141c-15.225,0-27.611,12.386-27.611,27.611
	c0,4.344,0.986,8.506,2.931,12.373c1.526,3.037,1.406,6.643-0.32,9.571s-4.823,4.778-8.22,4.913
	c-26.862,1.061-47.904,22.965-47.904,49.867c0,27.521,22.303,49.911,49.717,49.911H485c5.522,0,10,4.478,10,10s-4.478,10-10,10
	h-10.283c-38.442,0-69.717-31.361-69.717-69.911c0-33.275,22.986-61.094,54.278-68.168c-0.509-2.799-0.765-5.654-0.765-8.557
	c0-26.254,21.358-47.611,47.611-47.611c8.721,0,17.078,2.326,24.369,6.687c19.982-26.425,50.814-41.901,84.461-41.901
	c52.585,0,96.91,38.729,104.778,89.766c36.401,2.449,65.267,32.834,65.267,69.834c0,38.196-31.097,69.577-69.318,69.952
	C715.648,1764.091,715.614,1764.091,715.579,1764.091z"/>
<path fill="#FFFFFF" d="M501.033,1858.085c-2.558,0-5.114-0.975-7.066-2.924c-3.908-3.902-3.912-10.234-0.01-14.143L536.914,1798
	h-25.881c-4.092,0-7.771-2.492-9.288-6.293c-1.517-3.8-0.565-8.141,2.401-10.958l63-59.829c4.005-3.803,10.334-3.642,14.137,0.365
	c3.804,4.004,3.641,10.334-0.364,14.137L536.084,1778h24.949c4.043,0,7.688,2.435,9.236,6.17c1.549,3.735,0.696,8.035-2.16,10.896
	l-60,60.085C506.156,1857.106,503.594,1858.085,501.033,1858.085z"/>
<path fill="#FFFFFF" d="M602.957,1822.939c-2.561,0-5.121-0.978-7.074-2.933c-3.903-3.907-3.9-10.238,0.008-14.142L638.799,1763
	h-25.842c-4.087,0-7.763-2.487-9.282-6.281c-1.521-3.794-0.578-8.132,2.379-10.953l63-60.121c3.995-3.813,10.325-3.665,14.138,0.331
	c3.813,3.995,3.666,10.324-0.33,14.138L637.921,1743h25.036c4.046,0,7.693,2.438,9.24,6.176c1.547,3.737,0.689,8.04-2.172,10.898
	l-60,59.939C608.073,1821.964,605.516,1822.939,602.957,1822.939z"/>
<path fill="#FFFFFF" d="M551.957,1870.939c-2.561,0-5.121-0.978-7.074-2.933c-3.903-3.907-3.9-10.239,0.008-14.142l25.041-25.017
	c3.908-3.903,10.239-3.9,14.143,0.007s3.9,10.239-0.008,14.142l-25.041,25.017C557.073,1869.964,554.515,1870.939,551.957,1870.939z
	"/>
<path fill="#FFFFFF" d="M460.957,1837.939c-2.561,0-5.121-0.978-7.074-2.933c-3.903-3.907-3.9-10.238,0.008-14.142l15.791-15.776
	c3.908-3.902,10.239-3.899,14.143,0.007c3.903,3.907,3.9,10.238-0.008,14.142l-15.791,15.776
	C466.073,1836.964,463.516,1837.939,460.957,1837.939z"/>
<path fill="#FFFFFF" d="M639.957,1851.939c-2.561,0-5.121-0.978-7.074-2.933c-3.903-3.907-3.9-10.238,0.008-14.142l51.992-51.939
	c3.906-3.903,10.238-3.9,14.142,0.007s3.899,10.238-0.007,14.142l-51.992,51.939
	C645.073,1850.964,642.515,1851.939,639.957,1851.939z"/>
<path fill="#FFFFFF" d="M1257.829,2354.091l-10.584-0.004l0,0L1016.967,2354c-38.442,0-69.717-31.361-69.717-69.91
	c0-33.276,22.986-61.094,54.278-68.168c-0.509-2.799-0.765-5.656-0.765-8.559c0-26.253,21.358-47.61,47.611-47.61
	c8.721,0,17.078,2.326,24.369,6.687c19.982-26.425,50.814-41.901,84.461-41.901c52.585,0,96.91,38.729,104.778,89.767
	c36.401,2.448,65.267,32.834,65.267,69.833c0,38.196-31.097,69.577-69.318,69.952
	C1257.898,2354.091,1257.864,2354.091,1257.829,2354.091z M1247.253,2334.087l10.532,0.004
	c27.279-0.295,49.465-22.693,49.465-49.953c0-27.565-22.438-49.992-50.018-49.992c-1.185,0-2.441,0.076-3.516,0.15
	c-2.65,0.193-5.273-0.696-7.276-2.449c-2.003-1.752-3.226-4.23-3.396-6.886c-2.893-45.097-40.598-80.423-85.84-80.423
	c-30.338,0-57.857,15.51-73.613,41.489c-1.596,2.63-4.313,4.38-7.366,4.744c-3.054,0.36-6.106-0.697-8.274-2.878
	c-5.221-5.25-12.174-8.141-19.576-8.141c-15.225,0-27.611,12.386-27.611,27.61c0,4.345,0.986,8.508,2.93,12.374
	c1.527,3.037,1.407,6.643-0.319,9.571c-1.727,2.928-4.823,4.779-8.22,4.913c-26.862,1.061-47.904,22.966-47.904,49.868
	c0,27.521,22.303,49.91,49.717,49.91h10.283L1247.253,2334.087z"/>
<path fill="#FFFFFF" d="M1222.625,2439c-0.003,0-0.005,0-0.008,0l-56.375-0.024c-5.521-0.004-9.996-4.471-9.992-9.994
	c0.003-5.521,4.48-9.981,10-9.981c0.002,0,0.004,0,0.006,0l56.375,0.032c5.523,0.004,9.997,4.467,9.994,9.99
	C1232.621,2434.543,1228.145,2439,1222.625,2439z"/>
<path fill="#FFFFFF" d="M1127.25,2439c-0.002,0-0.003,0-0.004,0l-99.416-0.024c-5.523-0.002-9.998-4.468-9.996-9.991
	c0.002-5.521,4.479-9.984,10-9.984c0.001,0,0.002,0,0.004,0l99.416,0.032c5.521,0.002,9.998,4.464,9.996,9.987
	C1137.248,2434.541,1132.771,2439,1127.25,2439z"/>
<path fill="#FFFFFF" d="M1245.875,2397c-0.002,0-0.002,0-0.004,0l-129.541-0.024c-5.522-0.002-9.998-4.468-9.996-9.99
	c0.001-5.521,4.479-9.985,10-9.985h0.002l129.541,0.032c5.523,0.002,9.999,4.464,9.998,9.986
	C1255.873,2392.54,1251.397,2397,1245.875,2397z"/>
<path fill="#FFFFFF" d="M1078.875,2397c-0.002,0-0.004,0-0.006,0l-71.541-0.024c-5.522-0.002-9.998-4.47-9.994-9.992
	c0.002-5.521,4.479-9.983,10-9.983c0.002,0,0.002,0,0.005,0l71.541,0.032c5.522,0.002,9.997,4.466,9.995,9.988
	C1088.871,2392.542,1084.395,2397,1078.875,2397z"/>
<path fill="#FFFFFF" d="M1675.912,2414.098c-66.168,0-120-53.832-120-120s53.832-120,120-120c3.205,0,6.489,0.134,9.76,0.397
	c3.578,0.289,6.725,2.472,8.25,5.72c1.523,3.248,1.191,7.064-0.873,10c-11.865,16.876-18.137,36.738-18.137,57.438
	c0,25.291,9.462,49.426,26.645,67.96c17.09,18.436,40.246,29.696,65.201,31.708c3.576,0.288,6.725,2.471,8.25,5.72
	c1.523,3.248,1.191,7.064-0.873,10C1751.656,2395.011,1714.938,2414.098,1675.912,2414.098z M1667.313,2194.464
	c-51.129,4.377-91.4,47.392-91.4,99.634c0,55.141,44.859,100,100,100c26.891,0,52.467-10.876,71.111-29.708
	c-22.936-5.456-43.836-17.599-60.135-35.179c-20.621-22.244-31.977-51.208-31.977-81.558
	C1654.912,2228.995,1659.16,2210.901,1667.313,2194.464z"/>
<path fill="#FFFFFF" d="M1245.579,1764.091l-10.584-0.004l0,0L1004.717,1764c-38.442,0-69.717-31.361-69.717-69.911
	c0-33.275,22.986-61.094,54.278-68.168c-0.509-2.799-0.765-5.654-0.765-8.557c0-26.254,21.358-47.611,47.611-47.611
	c8.721,0,17.078,2.326,24.369,6.687c19.982-26.425,50.814-41.901,84.461-41.901c52.585,0,96.91,38.729,104.778,89.766
	c36.401,2.449,65.267,32.834,65.267,69.834c0,38.196-31.097,69.577-69.318,69.952
	C1245.648,1764.091,1245.614,1764.091,1245.579,1764.091z M1235.003,1744.087l10.532,0.004
	c27.279-0.295,49.465-22.693,49.465-49.953c0-27.566-22.438-49.992-50.018-49.992c-1.178,0-2.438,0.076-3.516,0.15
	c-2.65,0.188-5.273-0.696-7.276-2.449c-2.003-1.752-3.226-4.23-3.396-6.887c-2.893-45.096-40.598-80.422-85.84-80.422
	c-30.338,0-57.857,15.51-73.613,41.489c-1.596,2.63-4.313,4.38-7.366,4.744c-3.056,0.36-6.106-0.696-8.274-2.878
	c-5.222-5.25-12.174-8.141-19.576-8.141c-15.225,0-27.611,12.386-27.611,27.611c0,4.344,0.986,8.506,2.931,12.373
	c1.526,3.037,1.406,6.643-0.32,9.571s-4.823,4.778-8.22,4.913c-26.862,1.061-47.904,22.965-47.904,49.867
	c0,27.521,22.303,49.911,49.717,49.911H1015L1235.003,1744.087z"/>
<path fill="#FFFFFF" d="M1089.957,1870.939c-2.561,0-5.121-0.978-7.074-2.933c-3.903-3.907-3.9-10.239,0.008-14.142l25.041-25.017
	c3.908-3.903,10.24-3.9,14.143,0.007c3.903,3.907,3.9,10.239-0.008,14.142l-25.041,25.017
	C1095.073,1869.964,1092.515,1870.939,1089.957,1870.939z"/>
<path fill="#FFFFFF" d="M1002.957,1813.939c-2.561,0-5.121-0.978-7.074-2.933c-3.903-3.907-3.9-10.238,0.008-14.142l15.791-15.776
	c3.908-3.903,10.239-3.9,14.143,0.007s3.9,10.238-0.008,14.142l-15.791,15.776
	C1008.073,1812.964,1005.516,1813.939,1002.957,1813.939z"/>
<path fill="#FFFFFF" d="M1141.957,1813.939c-2.561,0-5.121-0.978-7.074-2.933c-3.903-3.907-3.9-10.238,0.008-14.142l15.791-15.776
	c3.908-3.903,10.239-3.9,14.143,0.007s3.9,10.238-0.008,14.142l-15.791,15.776
	C1147.073,1812.964,1144.516,1813.939,1141.957,1813.939z"/>
<path fill="#FFFFFF" d="M1186.957,1839.103c-2.561,0-5.122-0.978-7.075-2.934c-3.903-3.907-3.898-10.239,0.009-14.142l40.992-40.939
	c3.908-3.903,10.24-3.899,14.143,0.009c3.902,3.907,3.898,10.239-0.01,14.142l-40.992,40.939
	C1192.073,1838.128,1189.515,1839.103,1186.957,1839.103z"/>
<path fill="#FFFFFF" d="M1035.957,1850.103c-2.561,0-5.121-0.978-7.074-2.933c-3.903-3.907-3.9-10.238,0.008-14.142l51.992-51.939
	c3.906-3.903,10.238-3.9,14.142,0.007s3.899,10.238-0.007,14.142l-51.992,51.939
	C1041.073,1849.127,1038.515,1850.103,1035.957,1850.103z"/>
<path fill="#FFFFFF" d="M1785.578,1742.091l-10.584-0.004l0,0L1544.717,1742c-38.442,0-69.717-31.361-69.717-69.911
	c0-33.275,22.986-61.094,54.278-68.168c-0.509-2.799-0.765-5.654-0.765-8.557c0-26.254,21.358-47.611,47.611-47.611
	c8.721,0,17.078,2.326,24.369,6.687c19.982-26.425,50.814-41.901,84.461-41.901c52.584,0,96.91,38.729,104.779,89.766
	c36.402,2.449,65.266,32.834,65.266,69.834c0,38.196-31.098,69.577-69.318,69.952
	C1785.647,1742.091,1785.614,1742.091,1785.578,1742.091z M1775.002,1722.087l10.531,0.004
	c27.281-0.295,49.467-22.693,49.467-49.953c0-27.566-22.438-49.992-50.018-49.992c-1.178,0-2.438,0.076-3.514,0.15
	c-2.643,0.183-5.273-0.696-7.277-2.449c-2.004-1.752-3.227-4.23-3.396-6.887c-2.893-45.096-40.598-80.422-85.84-80.422
	c-30.338,0-57.857,15.51-73.613,41.489c-1.596,2.63-4.313,4.38-7.366,4.744c-3.052,0.362-6.106-0.696-8.274-2.878
	c-5.222-5.25-12.174-8.141-19.576-8.141c-15.225,0-27.611,12.386-27.611,27.611c0,4.344,0.986,8.506,2.931,12.373
	c1.526,3.037,1.406,6.643-0.32,9.571s-4.823,4.778-8.22,4.913c-26.862,1.061-47.904,22.965-47.904,49.867
	c0,27.521,22.303,49.911,49.717,49.911H1555L1775.002,1722.087z"/>
<path fill="#FFFFFF" d="M1569.002,1877.054c-2.561,0-5.121-0.978-7.074-2.933c-3.904-3.907-3.9-10.238,0.007-14.142l61.903-61.841
	c3.907-3.902,10.238-3.9,14.143,0.007c3.902,3.907,3.899,10.238-0.008,14.142l-61.903,61.841
	C1574.117,1876.078,1571.56,1877.054,1569.002,1877.054z"/>
<path fill="#FFFFFF" d="M1630.874,1877.085c-2.562,0-5.122-0.978-7.075-2.933l-61.84-61.903c-3.904-3.907-3.9-10.238,0.007-14.142
	c3.907-3.902,10.239-3.9,14.142,0.007l61.842,61.903c3.902,3.907,3.899,10.238-0.008,14.142
	C1635.99,1876.109,1633.432,1877.085,1630.874,1877.085z"/>
<path fill="#FFFFFF" d="M1649.953,1846c-0.002,0-0.002,0-0.004,0l-100,0.029c-5.523-0.003-9.998-4.497-9.996-10.02
	c0.004-5.521,4.48-10.01,10-10.01c0.002,0,0.004,0,0.006,0l100,0.104c5.522,0.002,9.998,4.43,9.994,9.952
	C1659.951,1841.577,1655.474,1846,1649.953,1846z"/>
<path fill="#FFFFFF" d="M1599.928,1896c-0.002,0-0.002,0-0.004,0c-5.523,0-9.998-4.416-9.996-9.938l0.051-100.033
	c0.004-5.521,4.48-10.028,10-10.028c0.002,0,0.004,0,0.006,0c5.522,0,9.998,4.549,9.994,10.071l-0.051,99.967
	C1609.926,1891.56,1605.448,1896,1599.928,1896z"/>
<path fill="#FFFFFF" d="M1707.711,1832.734c-3.445,0-6.797-1.781-8.654-4.974c-2.777-4.773-1.158-10.895,3.615-13.672l60.506-35.199
	c4.775-2.781,10.896-1.159,13.672,3.615c2.777,4.773,1.16,10.895-3.615,13.672l-60.506,35.199
	C1711.147,1832.297,1709.418,1832.734,1707.711,1832.734z"/>
<path fill="#FFFFFF" d="M1768.707,1831.83c-1.611,0-3.246-0.391-4.762-1.213l-61.523-33.391c-4.854-2.635-6.654-8.705-4.02-13.56
	c2.635-4.854,8.703-6.652,13.561-4.019l61.523,33.391c4.854,2.635,6.652,8.705,4.018,13.56
	C1775.694,1829.937,1772.256,1831.83,1768.707,1831.83z"/>
<path fill="#FFFFFF" d="M1737.936,1850c-0.002,0-0.002,0-0.004,0c-5.523,0-9.998-4.71-9.996-10.232l0.035-68.798
	c0.004-5.521,4.48-9.97,10-9.97c0.002,0,0.004,0,0.006,0c5.523,0,9.998,4.343,9.994,9.866l-0.035,68.98
	C1747.934,1845.368,1743.457,1850,1737.936,1850z"/>
<path fill="#FFFFFF" d="M519.71,2389.734c-3.444,0-6.796-1.781-8.653-4.974c-2.777-4.773-1.158-10.895,3.615-13.672l60.507-35.199
	c4.772-2.779,10.896-1.159,13.672,3.615c2.777,4.773,1.159,10.895-3.615,13.672l-60.507,35.199
	C523.148,2389.297,521.417,2389.734,519.71,2389.734z"/>
<path fill="#FFFFFF" d="M580.707,2388.83c-1.611,0-3.246-0.391-4.762-1.213l-61.523-33.391c-4.854-2.635-6.652-8.705-4.019-13.56
	c2.635-4.854,8.705-6.651,13.56-4.019l61.522,33.391c4.854,2.635,6.653,8.705,4.019,13.56
	C587.693,2386.937,584.256,2388.83,580.707,2388.83z"/>
<path fill="#FFFFFF" d="M549.936,2407c-0.002,0-0.002,0-0.004,0c-5.523,0-9.998-4.71-9.996-10.232l0.035-68.798
	c0.004-5.521,4.48-9.97,10-9.97c0.002,0,0.004,0,0.006,0c5.522,0,9.998,4.343,9.994,9.866l-0.035,68.98
	C559.934,2402.368,555.456,2407,549.936,2407z"/>
<path fill="#FFFFFF" d="M614.71,2355.734c-3.444,0-6.796-1.781-8.653-4.974c-2.777-4.773-1.158-10.895,3.615-13.672l60.507-35.199
	c4.772-2.779,10.895-1.16,13.672,3.615c2.777,4.773,1.159,10.895-3.615,13.672l-60.507,35.199
	C618.148,2355.297,616.417,2355.734,614.71,2355.734z"/>
<path fill="#FFFFFF" d="M675.707,2354.83c-1.611,0-3.246-0.391-4.762-1.213l-61.523-33.391c-4.854-2.635-6.652-8.705-4.019-13.56
	c2.635-4.854,8.705-6.652,13.56-4.019l61.522,33.391c4.854,2.635,6.653,8.705,4.019,13.56
	C682.693,2352.937,679.256,2354.83,675.707,2354.83z"/>
<path fill="#FFFFFF" d="M644.936,2373c-0.002,0-0.002,0-0.004,0c-5.523,0-9.998-4.71-9.996-10.232l0.035-68.798
	c0.004-5.521,4.48-9.97,10-9.97c0.002,0,0.004,0,0.006,0c5.522,0,9.998,4.343,9.994,9.866l-0.035,68.98
	C654.934,2368.368,650.456,2373,644.936,2373z"/>
<path fill="#FFFFFF" d="M532.957,2471.939c-2.561,0-5.121-0.978-7.074-2.933c-3.903-3.907-3.9-10.239,0.008-14.142l25.041-25.017
	c3.908-3.903,10.239-3.9,14.143,0.007s3.9,10.239-0.008,14.142l-25.041,25.017C538.073,2470.964,535.515,2471.939,532.957,2471.939z
	"/>
<path fill="#FFFFFF" d="M483.957,2438.939c-2.561,0-5.121-0.978-7.074-2.933c-3.903-3.907-3.9-10.238,0.008-14.142l15.791-15.776
	c3.908-3.902,10.239-3.9,14.143,0.007s3.9,10.238-0.008,14.142l-15.791,15.776C489.073,2437.964,486.516,2438.939,483.957,2438.939z
	"/>
<path fill="#FFFFFF" d="M598.957,2423.939c-2.561,0-5.121-0.978-7.074-2.933c-3.903-3.907-3.9-10.238,0.008-14.142l15.791-15.776
	c3.908-3.902,10.24-3.9,14.143,0.007c3.903,3.907,3.9,10.238-0.008,14.142l-15.791,15.776
	C604.073,2422.964,601.516,2423.939,598.957,2423.939z"/>
<path fill="#FFFFFF" d="M639.957,2441.939c-2.561,0-5.121-0.978-7.074-2.933c-3.903-3.907-3.9-10.238,0.008-14.142l51.992-51.939
	c3.906-3.903,10.238-3.9,14.142,0.007s3.899,10.238-0.007,14.142l-51.992,51.939
	C645.073,2440.964,642.515,2441.939,639.957,2441.939z"/>
<path fill="#FFFFFF" d="M716.079,2354.091l-10.084-0.004c-5.522-0.002-9.998-4.481-9.996-10.004c0.002-5.521,4.479-9.996,10-9.996
	c0.001,0,0.003,0,0.004,0l10.032,0.004c13.213-0.144,25.584-5.386,34.838-14.766c9.271-9.398,14.377-21.895,14.377-35.188
	c0-27.565-22.494-49.992-50.143-49.992c-1.261,0-2.646,0.086-3.578,0.15c-2.653,0.193-5.273-0.696-7.276-2.449
	c-2.003-1.752-3.226-4.23-3.396-6.886c-2.893-45.097-40.611-80.423-85.871-80.423c-30.348,0-57.873,15.51-73.629,41.489
	c-1.596,2.63-4.313,4.38-7.366,4.744c-3.054,0.36-6.106-0.697-8.274-2.878c-5.221-5.25-12.176-8.141-19.584-8.141
	c-15.227,0-27.615,12.386-27.615,27.61c0,4.347,0.985,8.51,2.928,12.374c1.527,3.037,1.407,6.643-0.319,9.571
	c-1.727,2.928-4.823,4.779-8.22,4.913c-26.863,1.061-47.906,22.966-47.906,49.868c0,27.521,22.303,49.91,49.717,49.91H487
	c5.522,0,10,4.478,10,10s-4.478,10-10,10h-12.283c-38.441,0-69.717-31.361-69.717-69.91c0-33.276,22.988-61.095,54.281-68.169
	c-0.508-2.798-0.764-5.655-0.764-8.558c0-26.253,21.36-47.61,47.615-47.61c8.725,0,17.084,2.326,24.377,6.687
	c19.983-26.425,50.82-41.901,84.477-41.901c52.598,0,96.935,38.729,104.809,89.762c36.5,2.414,65.455,32.815,65.455,69.838
	c0,18.583-7.152,36.067-20.139,49.232c-13.001,13.179-30.378,20.538-48.93,20.72
	C716.148,2354.091,716.114,2354.091,716.079,2354.091z"/>
	
<path fill="#FFFFFF" d="M793.727,2867.535H476.02c-5.523,0-10-4.478-10-10s4.477-10,10-10h317.707
	c8.891,0,16.402-7.608,16.402-16.614c0-9.161-7.232-16.614-16.123-16.614c-8.814,0-15.984,7.4-15.984,16.496c0,5.522-4.479,10-10,10
	c-5.523,0-10-4.478-10-10c0-20.124,16.143-36.496,35.984-36.496c19.918,0,36.123,16.425,36.123,36.614
	S813.799,2867.535,793.727,2867.535z"/>
<path fill="#FFFFFF" d="M719.625,2980.108c-12.148,0-23.502-4.725-31.971-13.303c-8.414-8.523-13.049-19.903-13.049-32.043
	c0-5.522,4.479-10,10-10c5.523,0,10,4.478,10,10c0,14.213,10.99,25.346,25.02,25.346c14.154,0,25.242-11.107,25.242-25.286
	c0-13.943-11.523-25.287-25.688-25.287H451.02c-5.523,0-10-4.478-10-10s4.477-10,10-10h268.16c25.191,0,45.688,20.315,45.688,45.287
	C764.867,2959.793,744.571,2980.108,719.625,2980.108z"/>
<path fill="#FFFFFF" d="M610.18,2830.535H502.02c-5.523,0-10-4.478-10-10s4.477-10,10-10h108.16
	c14.164,0,25.688-11.415,25.688-25.446s-11.324-25.447-25.242-25.447c-14.029,0-25.02,11.181-25.02,25.453c0,5.522-4.477,10-10,10
	c-5.521,0-10-4.478-10-10c0-25.063,20.195-45.453,45.02-45.453c24.945,0,45.242,20.388,45.242,45.447
	S635.371,2830.535,610.18,2830.535z"/>
<path fill="#FFFFFF" d="M680.795,2831.535h-9.775c-5.523,0-10-4.478-10-10s4.477-10,10-10h9.602
	c25.17-0.912,44.863-20.812,44.863-45.37c0-24.986-20.297-45.313-45.242-45.313c-1.283,0-2.295,0.028-3.182,0.09
	c-2.67,0.188-5.273-0.697-7.275-2.449c-2.004-1.752-3.225-4.23-3.396-6.886c-2.637-41.105-36.994-73.304-78.217-73.304
	c-27.648,0-52.725,14.129-67.08,37.794c-1.594,2.63-4.311,4.38-7.365,4.744c-3.045,0.362-6.105-0.696-8.273-2.878
	c-4.66-4.685-10.859-7.265-17.455-7.265c-13.574,0-24.619,11.043-24.619,24.616c0,3.871,0.879,7.583,2.613,11.032
	c1.527,3.038,1.406,6.643-0.32,9.57c-1.729,2.929-4.824,4.779-8.221,4.913c-24.297,0.959-43.33,20.811-43.33,45.193
	c0,24.856,20.201,45.212,45.033,45.375l8.629,0.005c5.523,0.003,9.998,4.482,9.994,10.006c-0.002,5.521-4.479,9.994-10,9.994
	c-0.002,0-0.004,0-0.006,0l-8.689-0.005c-35.846-0.236-64.961-29.563-64.961-65.375c0-30.79,21.063-56.569,49.846-63.437
	c-0.391-2.384-0.588-4.811-0.588-7.272c0-24.602,20.016-44.616,44.619-44.616c7.928,0,15.537,2.054,22.227,5.912
	c18.551-24.172,46.959-38.308,77.947-38.308c48.596,0,89.592,35.657,97.139,82.744c33.613,2.599,60.174,30.813,60.174,65.118
	c0,35.46-28.27,64.172-64.359,65.364C681.016,2831.533,680.905,2831.535,680.795,2831.535z"/>
</svg>
